
<svg width="79px" height="94px" viewBox="0 0 79 94" version="1.1" xmlns="http://www.w3.org/2000/svg" xmlns:xlink="http://www.w3.org/1999/xlink">
    <defs>
        <path d="M0,0 L79,0 L79,2.36225202 L0,2.36225202 L0,0 Z M76.6575973,2.36225202 L79,2.36225202 L79,76.417799 L76.6575973,76.417799 L76.6575973,2.36225202 Z M0,2.36225202 L2.36966474,2.36225202 L2.36966474,76.417799 L0,76.417799 L0,2.36225202 Z M0,76.417799 L79,76.417799 L79,78.7528743 L0,78.7528743 L0,76.417799 Z" id="path-khwwgfex2z-1"></path>
    </defs>
    <g id="Page-1" stroke="none" stroke-width="1" fill="none" fill-rule="evenodd">
        <g id="Group-2">
            <g id="SFL-LOGO-OFFICIAL">
                <g id="Clipped">
                    <mask id="mask-khwwgfex2z-2" fill="white">
                        <use xlink:href="#path-khwwgfex2z-1"></use>
                    </mask>
                    <g id="Shape"></g>
                    <polygon id="Path" fill="#FFFFFF" fill-rule="nonzero" mask="url(#mask-khwwgfex2z-2)" points="0 0 79 0 79 78.7528743 0 78.7528743"></polygon>
                </g>
                <g id="Group" transform="translate(7.359573, 16.724044)" fill="#FFFFFF" fill-rule="nonzero">
                    <g id="Path">
                        <path d="M5.04969208,10.0008959 C3.7788806,10.0008959 2.67793042,9.36747783 2.61082488,7.97939361 L-2.98008474e-16,7.97939361 C0.0167763856,10.8224577 2.3696642,12.0892938 4.94693631,12.0892938 C7.33337744,12.0892938 9.78902049,11.0795879 9.78902049,8.3389576 C9.78902049,3.9050321 3.03862272,5.39345975 3.03862272,3.32178574 C3.03862272,2.45005226 4.05359405,2.10721218 4.77497863,2.10721218 C6.06256596,2.10721218 6.76717416,2.50022398 6.90348216,3.71688842 L9.39477596,3.71688842 C9.30879658,1.06196804 7.14464283,0 4.73932841,0 C2.61082488,0 0.37746814,1.13095402 0.37746814,3.52874421 C0.37746814,7.8267881 7.12786645,6.36971791 7.12786645,8.63162596 C7.12786645,9.67477974 5.8570555,10.0008959 5.04969208,10.0008959 Z"></path>
                    </g>
                </g>
                <g id="Group" transform="translate(17.749801, 16.895464)" fill="#FFFFFF" fill-rule="nonzero">
                    <g id="Path">
                        <polygon points="5.90948211 2.32880367 9.24169158 2.32880367 9.24169158 0 -3.42709745e-16 0 -3.42709745e-16 2.32880367 3.33221 2.32880367 3.33221 11.6440194 5.90948211 11.6440194"></polygon>
                    </g>
                </g>
                <g id="Group" transform="translate(27.677466, 16.724044)" fill="#FFFFFF" fill-rule="nonzero">
                    <g id="Shape">
                        <path d="M9.44720203,5.97670611 C9.44720203,7.77452603 7.81360135,9.41764955 6.01013989,9.41764955 C4.20667843,9.41764955 2.5751752,7.77452603 2.5751752,5.97670611 C2.5751752,4.1788862 4.20667843,2.55248605 6.01013989,2.55248605 C7.81360135,2.55248605 9.44720203,4.1788862 9.44720203,5.97670611 Z M12.0223772,5.99343002 C12.0223772,2.77407808 9.23959413,0 6.01013989,0 C2.7827831,0 3.57610169e-16,2.77407808 3.57610169e-16,5.99343002 C3.57610169e-16,9.21278196 2.7827831,11.9868595 6.01013989,11.9868595 C9.23959413,11.9868595 12.0223772,9.21278196 12.0223772,5.99343002 Z"></path>
                    </g>
                </g>
                <g id="Group" transform="translate(41.329858, 16.895464)" fill="#FFFFFF" fill-rule="nonzero">
                    <g id="Shape">
                        <path d="M2.57727211,7.48394749 L2.5940485,7.48394749 L5.3768316,11.6440194 L8.63983861,11.6440194 L5.29085276,7.36269944 C6.76927161,7.00313546 7.95410371,5.70285202 7.95410371,3.73361179 C7.95410371,1.52396582 6.27017387,0 4.38073357,0 L0,0 L0,11.6440194 L2.57727211,11.6440194 L2.57727211,7.48394749 Z M3.95083882,2.02150176 C4.70787309,2.02150176 5.49636321,2.67164375 5.49636321,3.73361179 C5.49636321,4.84575155 4.70787309,5.46244573 3.95083882,5.46244573 L2.57727211,5.46244573 L2.57727211,2.02150176 L3.95083882,2.02150176 Z"></path>
                    </g>
                </g>
                <g id="Group" transform="translate(49.901924, 16.895464)" fill="#FFFFFF" fill-rule="nonzero">
                    <g id="Path">
                        <polygon points="4.3094342 11.6440194 6.88670684 11.6440194 6.88670684 6.07913937 11.198238 0 8.12396502 0 5.59911898 4.0241898 3.07427294 0 2.68207626e-16 0 4.3094342 6.07913937"></polygon>
                    </g>
                </g>
                <g id="Group" transform="translate(7.873349, 33.753160)" fill="#FFFFFF" fill-rule="nonzero">
                    <g id="Path">
                        <polygon points="6.59731339 6.96968764 6.59731339 4.64088344 2.57727211 4.64088344 2.57727211 2.32880367 6.76927161 2.32880367 6.76927161 0 0 0 0 11.6440194 2.57727211 11.6440194 2.57727211 6.96968764"></polygon>
                    </g>
                </g>
                <g id="Group" transform="translate(16.101650, 33.581740)" fill="#FFFFFF" fill-rule="nonzero">
                    <g id="Shape">
                        <path d="M9.44720203,5.97670611 C9.44720203,7.77452603 7.81360135,9.41764955 6.01013989,9.41764955 C4.20667843,9.41764955 2.5751752,7.77452603 2.5751752,5.97670611 C2.5751752,4.1788862 4.20667843,2.55248605 6.01013989,2.55248605 C7.81360135,2.55248605 9.44720203,4.1788862 9.44720203,5.97670611 Z M12.0223772,5.99343002 C12.0223772,2.77407808 9.23959413,0 6.01013989,0 C2.7827831,0 3.57610169e-16,2.77407808 3.57610169e-16,5.99343002 C3.57610169e-16,9.21278196 2.7827831,11.9868595 6.01013989,11.9868595 C9.23959413,11.9868595 12.0223772,9.21278196 12.0223772,5.99343002 Z"></path>
                    </g>
                </g>
                <g id="Group" transform="translate(29.754041, 33.753160)" fill="#FFFFFF" fill-rule="nonzero">
                    <g id="Shape">
                        <path d="M2.57727211,7.48394749 L2.5940485,7.48394749 L5.3768316,11.6440194 L8.63983861,11.6440194 L5.29085276,7.36269944 C6.76927161,7.00313546 7.95410371,5.70285202 7.95410371,3.73361179 C7.95410371,1.52396582 6.27017387,0 4.38073357,0 L0,0 L0,11.6440194 L2.57727211,11.6440194 L2.57727211,7.48394749 Z M3.95083882,2.02150176 C4.70787309,2.02150176 5.49636321,2.67164375 5.49636321,3.73361179 C5.49636321,4.84575155 4.70787309,5.46244573 3.95083882,5.46244573 L2.57727211,5.46244573 L2.57727211,2.02150176 L3.95083882,2.02150176 Z"></path>
                    </g>
                </g>
                <g id="Group" transform="translate(38.273682, 33.753160)" fill="#FFFFFF" fill-rule="nonzero">
                    <g id="Path">
                        <polygon points="15.5097685 11.6440194 13.2428596 0 10.185363 0 7.76327273 8.16753729 5.32440553 0 2.26690898 0 -3.42709745e-16 11.6440194 2.83311226 11.6440194 4.20877588 3.61445409 6.49246124 11.6440194 9.01730728 11.6440194 11.3009932 3.61445409 12.6766568 11.6440194"></polygon>
                    </g>
                </g>
                <g id="Group" transform="translate(54.897944, 33.753160)" fill="#FFFFFF" fill-rule="nonzero">
                    <g id="Path">
                        <polygon points="6.76927161 9.31521576 2.57727211 9.31521576 2.57727211 6.96968764 6.59731339 6.96968764 6.59731339 4.64088344 2.57727211 4.64088344 2.57727211 2.32880367 6.76927161 2.32880367 6.76927161 0 0 0 0 11.6440194 6.76927161 11.6440194"></polygon>
                    </g>
                </g>
                <g id="Group" transform="translate(63.725790, 33.753160)" fill="#FFFFFF" fill-rule="nonzero">
                    <g id="Shape">
                        <path d="M2.54371934,9.28176794 L2.54371934,2.38106574 L3.31543308,2.38106574 C5.30762914,2.38106574 6.64764254,3.88830766 6.64764254,5.82200971 C6.64764254,7.75780159 5.29085276,9.28176794 3.31543308,9.28176794 L2.54371934,9.28176794 Z M0,0 L0,11.6440194 L3.47061438,11.6440194 C6.78604799,11.6440194 9.27524381,9.11034764 9.27524381,5.82200971 C9.27524381,2.53576214 6.76927161,0 3.47061438,0 L0,0 Z"></path>
                    </g>
                </g>
                <g id="Group" transform="translate(7.873349, 50.610857)" fill="#FFFFFF" fill-rule="nonzero">
                    <g id="Path">
                        <polygon points="0 11.6440194 6.76927161 11.6440194 6.76927161 9.31521576 2.57727211 9.31521576 2.57727211 0 0 0"></polygon>
                    </g>
                </g>
                <g id="Group" transform="translate(16.271824, 50.610857)" fill="#FFFFFF" fill-rule="nonzero">
                    <g id="Path">
                        <polygon points="2.57727211 11.6440194 2.57727211 0 0 0 0 11.6440194"></polygon>
                    </g>
                </g>
                <g id="Group" transform="translate(20.909018, 50.610857)" fill="#FFFFFF" fill-rule="nonzero">
                    <g id="Path">
                        <polygon points="6.59731339 6.96968764 6.59731339 4.64088344 2.57727211 4.64088344 2.57727211 2.32880367 6.76927161 2.32880367 6.76927161 0 0 0 0 11.6440194 2.57727211 11.6440194 2.57727211 6.96968764"></polygon>
                    </g>
                </g>
                <g id="Group" transform="translate(29.565116, 50.610857)" fill="#FFFFFF" fill-rule="nonzero">
                    <g id="Path">
                        <polygon points="6.76927161 9.31521576 2.57727211 9.31521576 2.57727211 6.96968764 6.59731339 6.96968764 6.59731339 4.64088344 2.57727211 4.64088344 2.57727211 2.32880367 6.76927161 2.32880367 6.76927161 0 0 0 0 11.6440194 6.76927161 11.6440194"></polygon>
                    </g>
                </g>
            </g>
            <polygon id="Path-2" fill="#EE4747" points="13 79 13 94 17.8554591 90.2415527 23 94 23 79"></polygon>
        </g>
    </g>
</svg>